<?xml version="1.0" encoding="UTF-8"?>
<svg width="115px" height="30px" viewBox="0 0 115 30" version="1.1" xmlns="http://www.w3.org/2000/svg" xmlns:xlink="http://www.w3.org/1999/xlink">
    <!-- Generator: Sketch 41.2 (35397) - http://www.bohemiancoding.com/sketch -->
    <title>微信支付</title>
    <desc>Created with Sketch.</desc>
    <defs></defs>
    <g id="介绍资料" stroke="none" stroke-width="1" fill="none" fill-rule="evenodd">
        <g id="前端企业需知" transform="translate(-765.000000, -3547.000000)">
            <g id="付款方式" transform="translate(545.000000, 3376.000000)">
                <g id="微信支付" transform="translate(220.000000, 171.000000)">
                    <text font-family="PingFangSC-Light, PingFang SC" font-size="18" font-weight="300" fill="#000000">
                        <tspan x="43" y="22">微信支付</tspan>
                    </text>
                    <path d="M12.3387264,18.9621333 C11.7985652,19.2357565 11.139068,19.0338018 10.8440303,18.5044197 L10.7701935,18.3415217 L7.68201961,11.5547689 C7.57414062,11.319843 7.63873492,11.0415684 7.83902084,10.8784018 C8.03930676,10.7152351 8.3244738,10.7085703 8.53214049,10.8622023 L12.1760859,13.4605762 C12.6225314,13.7542159 13.1815708,13.8183662 13.6827555,13.633468 L30.8198755,5.99424872 C27.7466685,2.36951715 22.6878506,0 16.9625059,0 C7.59421369,0 0,6.33803359 0,14.1571403 C0,18.4234704 2.28494934,22.2630675 5.8610447,24.8584433 C6.1484095,25.0633151 6.33599487,25.4001043 6.33599487,25.780866 C6.33599487,25.9067873 6.30905443,26.0217153 6.2761272,26.1416402 L5.51181662,28.9978528 C5.47589603,29.131769 5.42001952,29.2716814 5.42001955,29.4115939 C5.42001955,29.7243981 5.67345933,29.9782393 5.98576902,29.9782393 C6.10198964,29.973389 6.2147339,29.9371294 6.31204779,29.8733049 L10.0258388,27.7266483 C10.3052213,27.5647496 10.6005684,27.4648122 10.9268472,27.4648122 C11.1004635,27.4648122 11.2680929,27.4917953 11.4257444,27.5397653 C13.1579156,28.0384532 15.0267846,28.3162793 16.9625059,28.3162793 C26.3307982,28.3162793 33.9250119,21.9772464 33.9250119,14.1581397 C33.9250119,11.7896219 33.2245602,9.55901785 31.9932818,7.59824494 L12.4624529,18.8911777 L12.3387264,18.9621333 L12.3387264,18.9621333 Z" id="Shape" fill="#02BB00"></path>
                </g>
            </g>
        </g>
    </g>
</svg>