<?xml version="1.0" encoding="UTF-8"?>
<svg width="129px" height="30px" viewBox="0 0 129 30" version="1.1" xmlns="http://www.w3.org/2000/svg" xmlns:xlink="http://www.w3.org/1999/xlink">
    <!-- Generator: Sketch 41.2 (35397) - http://www.bohemiancoding.com/sketch -->
    <title>银联支付</title>
    <desc>Created with Sketch.</desc>
    <defs></defs>
    <g id="介绍资料" stroke="none" stroke-width="1" fill="none" fill-rule="evenodd">
        <g id="前端企业需知" transform="translate(-943.000000, -3547.000000)">
            <g id="付款方式" transform="translate(545.000000, 3376.000000)">
                <g id="银联支付" transform="translate(398.000000, 171.000000)">
                    <g id="Group">
                        <path d="M11.1479775,26.9356875 L14.6926959,11.8250625 C14.6593433,11.8171799 14.6251702,11.8132307 14.5908853,11.8132969 C14.443411,11.8132969 14.2908368,11.8828594 14.135382,11.9543906 C14.0505241,12.2577656 13.8781639,13.1047031 13.7966587,13.494 C13.6225985,14.3087813 13.6102735,14.4016875 13.5324045,14.8058438 L13.4809325,14.8591406 C12.8573662,14.8492969 12.6419395,14.8492969 11.923882,14.8840781 L11.890496,14.8267031 C12.0116499,14.341637 12.1296444,13.8557988 12.244472,13.3692188 C12.5462205,12.0554531 12.6167702,11.5519219 12.7009198,10.8842344 L12.7567834,10.8436875 C13.4567076,10.7479219 13.6259512,10.7275313 14.383203,10.5729375 L14.4465749,10.6442344 L14.3329116,11.0635313 C14.460836,10.9876875 14.5817242,10.910625 14.7144652,10.8434531 C14.7901149,10.8067031 14.8677478,10.7764688 14.9448613,10.7498438 L16.746569,3.06960938 C17.1426198,1.39678125 18.821503,0.0376875 20.5001502,0.0376875 L9.47273037,0.0376875 C7.79044712,0.0376875 6.10958053,1.39678125 5.71985748,3.0695625 L0.115741087,26.9357344 C-0.275965285,28.6049531 0.769293372,29.962125 2.4478933,29.962125 L13.476777,29.962125 C11.7940215,29.9623594 10.7529184,28.6051875 11.1479775,26.9357344 L11.1479775,26.9356875 Z M10.0462414,14.3807813 C9.50852463,14.7040781 8.71571471,14.8843125 7.86831617,14.8843125 C7.21117502,14.8843125 6.04918361,14.7801563 5.63986344,14.0716875 C5.51170297,13.8470625 5.44955884,13.584 5.44955884,13.2616875 L5.59561644,12.1723125 L5.67320216,11.8384688 L6.56683102,7.9130625 C6.56683102,7.9130625 6.61249468,7.69654688 6.62363907,7.66176563 C6.64252787,7.68815625 6.94616523,7.7023125 8.65139837,7.68815625 C8.6478095,7.701375 8.64440951,7.713375 8.6383651,7.73878125 C8.48121033,8.19909375 7.60524249,11.6843906 7.60524249,11.6843906 C7.60283417,11.688 7.43647111,12.7247813 7.43647111,12.7247813 L7.44638773,12.9007031 C7.50154301,13.4138438 7.82354973,13.6836094 8.37023866,13.6836094 C8.71137029,13.6836094 9.00442993,13.5842344 9.258012,13.3778438 C9.70095422,13.0228594 9.83152302,12.4696875 10.0113916,11.6959219 C10.0150277,11.6935313 10.8486374,7.87007813 10.895576,7.66153125 C11.0128282,7.68792188 11.3762486,7.70114063 12.6126619,7.68815625 C12.6056079,7.70440569 12.6008104,7.72153101 12.5984008,7.7390625 C12.4439377,8.20992188 11.5418561,11.8296094 11.5418561,11.8296094 L11.4403289,12.2179219 C11.2236744,12.9765469 10.9780256,13.8323906 10.0462414,14.3807813 L10.0462414,14.3807813 Z" id="Shape" fill="#E03333"></path>
                        <path d="M24.4317111,26.9356875 L25.3615592,22.970625 L24.9657917,22.970625 C24.6381656,22.970625 24.3976168,22.9641562 24.2312537,22.9504688 C24.0721629,22.93875 23.9070276,22.9504688 23.7970476,22.8652969 C23.7003369,22.7805469 23.5528155,22.671375 23.5562154,22.5576094 C23.5668404,22.4527031 23.6099068,22.2784688 23.6771037,22.0408594 L25.5552165,15.8637656 L26.8944321,15.8637656 L26.6993108,16.5323437 C26.6993108,16.5323437 26.786577,16.4639531 26.9074653,16.3790156 L27.2650774,14.8545 C27.0251897,14.8566562 26.7853965,14.8648125 26.3884013,14.8842656 L26.3617681,14.8336406 C26.42174,14.56725 26.4902119,14.30325 26.554481,14.0327344 L26.6388667,13.6679531 C26.7703799,13.0981875 26.897832,12.4374844 26.912282,12.2377969 C26.9248902,12.1151719 26.9659734,11.8134844 26.6195057,11.8134844 C26.4700953,11.8134844 26.3182294,11.8830937 26.1632941,11.9545781 C26.0779639,12.2579531 25.9050842,13.1048906 25.8211708,13.4941875 C25.6488105,14.3090156 25.63743,14.401875 25.5590887,14.8060312 L25.5076168,14.8593281 C24.8840505,14.8494844 24.6703237,14.8494844 23.9532107,14.8842656 L23.9203442,14.8268906 C24.0399005,14.3415539 24.1574055,13.8557215 24.2728563,13.3694062 C24.5731409,12.0556406 24.6435017,11.5521094 24.7261874,10.8844219 L24.7817676,10.843875 C25.4819752,10.7481094 25.6521633,10.7277187 26.4091789,10.5731719 L26.469387,10.6444219 L26.3586514,11.0637187 C26.4832627,10.9863391 26.6103392,10.9129421 26.7396856,10.8436406 C27.0929061,10.6703437 27.4947652,10.6182656 27.7089641,10.6182656 C27.8868965,10.6182656 28.0730456,10.6468594 28.2324198,10.7303437 L30.0290747,3.0695625 C30.4219616,1.39701562 32.1025449,0.037875 33.7865281,0.037875 L20.5001502,0.037875 C18.821503,0.037875 17.1426198,1.39701562 16.746569,3.06975 L14.9448613,10.7500312 C15.2315932,10.6515937 15.5139807,10.6183125 15.686152,10.6183125 C16.0181226,10.6183125 16.3790875,10.7108906 16.5309534,11.0908125 C16.675736,11.4294844 16.5811976,11.8487812 16.3914124,12.6728906 L16.2942296,13.09125 C16.1000528,14.0082656 16.0681307,14.1770156 15.9600868,14.8057969 L15.888026,14.8595625 C15.2828763,14.8497187 15.0713218,14.8497187 14.3633698,14.8842656 L14.3358394,14.8336406 C14.3984557,14.56725 14.4641887,14.30325 14.5241606,14.0327344 L14.6111908,13.6679531 C14.7419957,13.0981875 14.87162,12.4374844 14.8853616,12.2377969 C14.8962227,12.1288125 14.9286642,11.8801875 14.6926959,11.82525 L11.1479775,26.935875 C10.7529184,28.6050938 11.7940215,29.9622656 13.476777,29.9622656 L26.7609827,29.9622656 C25.0791717,29.9622656 24.0354241,28.6050938 24.4317111,26.9356406 L24.4317111,26.9356875 Z M24.8794699,16.3718437 L24.5917464,17.3198437 L22.4440432,17.3198437 L22.2107666,17.5204687 C22.1111282,17.6155312 22.0770339,17.5756875 21.9459929,17.6464687 C21.8238769,17.7079219 21.5688309,17.8269375 21.2375687,17.8269375 L20.5489777,17.8269375 L20.8280124,16.9142812 L21.0366392,16.9142812 C21.2112188,16.9142812 21.3311627,16.8991406 21.3891513,16.8604687 C21.4576232,16.8160781 21.5339811,16.7203125 21.6214835,16.5650625 L22.0163537,15.8505469 L23.5806292,15.8505469 L23.3069306,16.3716094 L24.8794227,16.3716094 L24.8794699,16.3718437 Z M19.2402204,11.3529375 C19.1805318,11.577375 18.98593,12.3220781 18.9288386,12.5469375 C18.86235,12.8176875 18.7925087,13.0857656 18.7276729,13.3540781 C18.5928069,13.9254844 18.5381239,14.1369375 18.5052574,14.2891406 C18.474327,14.4345469 18.4670548,14.5130625 18.4111912,14.8101563 L18.3783247,14.8360781 L18.344986,14.8605469 C17.9813294,14.8583906 17.7468251,14.8514531 17.5186012,14.8583906 C17.2898579,14.8605469 17.0686229,14.8703906 16.7298996,14.8838438 L16.709358,14.8583906 L16.6875887,14.8296094 C16.778491,14.502 16.8309546,14.3863125 16.8766655,14.2711406 C16.9223292,14.1556875 16.9668595,14.0380781 17.0480813,13.7056875 C17.1527725,13.2741563 17.2202055,12.9705469 17.2646886,12.704625 C17.3106356,12.4629375 17.4735987,11.7345469 17.5052846,11.5007813 C17.4721348,11.3258438 17.5778176,11.1237656 17.8174219,10.962 C18.1977006,10.7016094 18.7603505,10.6427813 19.0833489,10.8297656 C19.2946673,10.9545469 19.3413226,11.1554531 19.2402676,11.3529375 L19.2402204,11.3529375 Z M19.5434327,12.7651406 C19.6735293,12.2109375 19.8901366,11.6316094 20.3507398,11.2063125 C20.9982005,10.6137656 21.8236408,10.5789375 22.1705807,10.5789375 C22.7494278,10.5789375 23.3052306,10.7083125 23.6214762,11.1079219 C23.829678,11.3709375 23.990941,11.8024687 23.7791504,12.7267031 C23.7155424,13.0032187 23.5291572,13.6795312 23.1152093,14.1343594 C22.585237,14.6952187 21.8773322,14.8838437 21.1863329,14.8838437 C20.9150425,14.8838437 20.4992057,14.8495312 20.2052017,14.727375 C19.262273,14.3495625 19.4140917,13.328625 19.5434327,12.7651406 L19.5434327,12.7651406 Z M22.8318302,22.9694531 L21.0639807,22.9694531 C20.9242036,22.9694531 20.8154514,22.95 20.6621216,22.9156875 C20.5124751,22.8787031 20.4477338,22.812 20.3809619,22.7107031 C20.3159372,22.6075312 20.2192266,22.5252187 20.285479,22.3060781 L20.7924543,20.6373281 L19.9220586,20.6373281 L20.2104905,19.6843594 L21.0869306,19.6843594 L21.3187905,18.9105469 L20.4474504,18.9105469 L20.7250213,18.0019219 L24.5595882,18.0019219 L24.2772007,18.9110625 L22.7425806,18.9110625 L22.5037318,19.6843125 L24.072824,19.6843125 L23.7877921,20.6215312 L22.2186527,20.6215312 L21.8393185,21.8805937 C21.7926631,22.0197656 22.2106722,22.0382344 22.3613103,22.0382344 L23.1466119,21.9316875 L22.8317829,22.9694531 L22.8318302,22.9694531 Z" id="Shape" fill="#004889"></path>
                        <path d="M26.6453833,16.875375 L26.3247932,17.9320781 C26.3247932,17.9320781 26.4183872,17.8495312 26.5859308,17.7494531 L26.7912048,16.8751406 L26.6453833,16.8751406 L26.6453833,16.875375 Z M21.388443,13.9305469 C21.5581588,13.9305469 21.7126691,13.820625 21.841774,13.6416094 C22.0289147,13.3943906 22.1647724,12.8150625 22.1966945,12.6597656 C22.3611214,11.9577656 22.3371799,11.5223906 21.9590262,11.522625 C21.4803369,11.522625 21.2902684,12.108 21.1321692,12.8076094 C21.0765417,13.0487812 21.0328142,13.2732187 21.0366392,13.4911406 C21.0410308,13.9305469 21.3391432,13.9305469 21.388443,13.9305469 L21.388443,13.9305469 Z M25.2365626,21.5652187 C25.1799906,21.7569375 25.1536408,21.8481562 25.1910878,21.8992969 C25.2222543,21.945375 25.2926151,21.9979219 25.3908368,21.9979219 L25.5943636,21.9787031 L26.1441691,19.6336875 L25.826743,19.6336875 L25.2365626,21.5652187 L25.2365626,21.5652187 Z M26.2034327,18.3309375 L26.0685195,18.771375 L26.3465626,18.771375 L26.4497898,18.3309375 L26.2034327,18.3309375 Z" id="Shape" fill="#004889"></path>
                        <path d="M36.5253561,13.9459219 C36.6943636,13.9459219 36.9900204,13.8367031 37.1133642,13.6629375 C37.1798528,13.5777656 37.2390692,13.4476875 37.2898328,13.3116094 C37.3413048,13.107375 37.3938156,12.9040781 37.4418876,12.6983906 C37.4736208,12.5568281 37.5028512,12.432 37.5275011,12.3151406 C37.5618314,11.8382344 37.4013239,11.5591406 37.0974032,11.5591406 C36.6174862,11.5591406 36.4291177,12.1427813 36.2690824,12.8265469 C36.2144465,13.0703906 36.1684995,13.2948281 36.1709079,13.5098438 C36.1812967,13.9459219 36.4784646,13.9459219 36.5253561,13.9459219 L36.5253561,13.9459219 Z M28.2575419,18.7646719 L28.3997273,18.3309375 L26.4497898,18.3309375 L26.3465626,18.771375 L27.9688739,18.771375 C28.1929894,18.7425469 28.2391726,18.7749375 28.2575419,18.764625 L28.2575419,18.7646719 Z" id="Shape" fill="#008089"></path>
                        <path d="M45.8119846,0.0376875 L33.7862448,0.0376875 C32.1023088,0.0376875 30.4216783,1.39678125 30.0287914,3.069375 L28.2321837,10.7301563 C28.3695052,10.8021563 28.487513,10.9147031 28.5595265,11.090625 C28.7007202,11.4292969 28.6054735,11.8485938 28.41498,12.6727031 L28.3192138,13.0910625 C28.1219204,14.0080781 28.0907539,14.1767813 27.986771,14.8056094 L27.9125381,14.859375 C27.696589,14.8550904 27.4805955,14.8534028 27.2646052,14.8543125 L26.9069931,16.3787813 C27.055459,16.2741563 27.2553969,16.1440781 27.4188794,16.0780781 C27.7135446,15.9679219 28.3811218,15.8690156 28.3811218,15.8690156 L30.5464388,15.8589375 L29.8097758,18.2995313 C29.6852514,18.7190625 29.5416494,18.99 29.4504637,19.1121563 C29.3678252,19.2388594 29.2727674,19.344 29.0832183,19.4476875 C28.8985331,19.5429375 28.7341062,19.599375 28.5810597,19.6147031 C28.4367021,19.6254844 28.2166949,19.6310625 27.9125381,19.6334531 L26.143508,19.6334531 L25.5937025,21.9784688 L26.31006,21.9110625 L25.9969782,22.9704375 L25.3608981,22.9704375 L24.4310027,26.9354531 C24.0347158,28.6046719 25.0785106,29.9618438 26.7602744,29.9618438 L38.783842,29.9618438 C40.4692419,29.9618438 42.1498252,28.604625 42.5422399,26.9354531 L48.1437118,3.06914063 C48.5380626,1.39678125 47.4930873,0.0376875 45.8120318,0.0376875 L45.8119846,0.0376875 Z M37.2199443,10.6183125 C37.4736208,10.7147813 37.6370561,10.8690938 37.7494444,11.0512969 C37.7581805,10.9960781 37.764461,10.9399219 37.7722054,10.8823125 L37.8258496,10.8369375 C38.5511793,10.7352188 38.7528172,10.706625 39.5078967,10.5672188 L39.5325466,10.6290938 C39.3945167,11.1952969 39.2562035,11.7621563 39.1242181,12.3309375 C38.8457028,13.5242344 38.7436089,14.1285938 38.637265,14.7510938 L38.5703042,14.8017188 C37.8415745,14.796 37.6320033,14.796 36.9557373,14.8247813 L36.9117264,14.7715313 C36.9337318,14.6872969 36.9554539,14.6025469 36.9782149,14.5197656 C36.7313384,14.7247031 36.4658564,14.8663125 36.1784161,14.8816406 C35.8907899,14.896246 35.6036544,14.8446696 35.3394231,14.7309375 C34.4011223,14.3678438 34.5522326,13.3497656 34.6825653,12.7934531 C34.8099702,12.2402344 35.029458,11.6656406 35.4891168,11.2430625 C36.1378052,10.65525 36.8964737,10.4935313 37.2199915,10.6183125 L37.2199443,10.6183125 Z M28.9088748,14.8780781 L30.0824828,10.0792969 C30.0824828,10.0761563 30.5474304,7.92117188 30.5474304,7.92117188 C30.5474304,7.92117188 30.5827053,7.75129688 30.6030579,7.65792188 C30.8179652,7.68314063 31.3421292,7.68885938 32.6506033,7.67423438 L33.1530452,7.66729688 C34.1771956,7.67423438 35.059444,7.68314063 35.5045584,8.30184375 C35.680602,8.53340625 35.7417544,8.828625 35.7417544,9.129375 C35.7417544,9.357375 35.7064324,9.58828125 35.6600604,9.78 C35.4796724,10.5607031 35.0710606,11.2058438 34.480408,11.6421563 C33.6112401,12.2800781 32.4961401,12.2800781 31.5123645,12.2800781 L31.4096095,12.2800781 C31.3363209,12.3177656 31.265488,12.4142344 31.265488,12.4142344 C31.2529269,12.4483125 31.0266392,13.3903125 31.0266392,13.3903125 C31.0237114,13.3903125 30.7587488,14.6690625 30.7130852,14.8840781 C30.5176806,14.8651406 30.0488607,14.8651406 28.908922,14.8780781 L28.9088748,14.8780781 Z M29.3368948,20.390625 C29.2841951,20.5735313 29.2375398,20.7124688 29.0985183,20.8298438 C28.9536884,20.9522344 28.7791087,21.0820781 28.3768246,21.0820781 L27.6360061,21.1116094 L27.6294895,21.7759219 C27.6195729,21.9648281 27.6705726,21.9446719 27.7003225,21.9756094 C27.7278072,22.0023523 27.7613885,22.022115 27.7982136,22.0332188 L28.0332375,22.023375 L28.7430784,21.9811406 L28.452002,22.9495313 L27.6364783,22.9495313 C27.0654229,22.9495313 26.6432583,22.9372969 26.5030562,22.826625 C26.3669153,22.7416875 26.3473181,22.6315313 26.3510014,22.4481563 L26.4038901,19.8616875 L27.7034391,19.8616875 L27.6857781,20.390625 L27.9988599,20.390625 C28.1050149,20.390625 28.1767923,20.3796094 28.2212754,20.3522344 C28.2599974,20.3217656 28.2897473,20.2809844 28.3114694,20.2171406 L28.4379299,19.8036094 L29.4603803,19.8036094 L29.3368476,20.390625 L29.3368948,20.390625 Z M33.8922109,22.9627031 L32.4976512,22.9627031 L32.5926619,22.6537969 L29.7568872,22.6537969 L30.0426274,21.7331719 L30.3294065,21.7331719 L31.8163324,16.8431719 L32.1134532,15.8556094 L33.5362988,15.8556094 L33.3878801,16.3543594 C33.3878801,16.3543594 33.7676865,16.083375 34.1264792,15.9916875 C34.423411,15.9129375 35.8916843,15.8757656 36.383454,15.8654531 L36.383454,15.8635313 L36.4717591,15.8635313 L36.5474087,15.8620781 L36.5469365,15.8634844 L37.9030575,15.8634844 L37.919963,16.4270625 C37.9105186,16.5203906 37.9927321,16.5652969 38.1682562,16.5652969 L38.4767574,16.5652969 L38.1934255,17.493375 L37.3742657,17.493375 C36.6639526,17.5444688 36.3943623,17.2411406 36.4107955,16.9007813 L36.3960623,16.3495313 L36.2432519,16.8432188 L35.7545988,16.8432188 L34.2884978,21.6592969 L34.6823292,21.6592969 L34.3786918,22.6538438 L33.9848132,22.6538438 L33.8922109,22.96275 L33.8922109,22.9627031 Z M40.1835017,18.6849375 L38.6592232,18.6849375 L38.4206105,19.4378438 L39.9495639,19.4378438 L39.6978708,20.2651406 L38.0426929,20.2651406 L37.7491611,20.6128594 L38.4203272,20.6128594 L38.5832902,21.6544688 C38.6007151,21.7574531 38.6040679,21.8250938 38.6362733,21.8683125 C38.6693759,21.9079219 38.8720054,21.9244688 38.9877938,21.9244688 L39.1911316,21.9244688 L38.8819221,22.9377656 L38.3656913,22.9377656 C38.2844695,22.9377656 38.1679256,22.9317656 38.0059542,22.9228594 C37.8497439,22.9102031 37.74,22.8196875 37.6362533,22.7712188 C37.5412427,22.7236875 37.3991045,22.6094531 37.3659546,22.4162344 L37.2049277,21.378 L36.4523037,22.400625 C36.2151076,22.7239219 35.8906454,22.970625 35.3456564,22.970625 L34.2930784,22.970625 L34.5672492,22.0665469 L34.970525,22.0665469 C35.0870688,22.0665469 35.1905794,22.0216875 35.2647652,21.9818438 C35.3426342,21.9501563 35.4125228,21.9110625 35.4886446,21.798 L36.583203,20.2648594 L35.1364158,20.2648594 L35.3839535,19.4376094 L37.0384702,19.4376094 L37.2746746,18.6847031 L35.6417383,18.6847031 L35.9216702,17.7518438 L40.4690058,17.7518438 L40.1835017,18.6849375 L40.1835017,18.6849375 Z M41.1472079,15.8147813 L41.0821833,15.8860781 L41.0937527,15.8860781 L40.5050362,16.884 C40.3193593,17.2247813 39.975536,17.4796875 39.4274304,17.4825938 L38.4896018,17.4681563 L38.7625449,16.5674531 L38.9443495,16.5674531 C39.0401157,16.5674531 39.1107126,16.5614531 39.1648762,16.5350625 C39.210351,16.5194531 39.2446814,16.4829375 39.2843478,16.430625 L39.6143351,15.9079219 L39.6136267,15.9038438 C40.0790466,15.2003906 40.1958266,14.8989375 40.6820242,14.0980781 C40.5974024,13.2045469 40.5563192,12.9151406 40.4837863,12.3283125 C40.4436476,11.9790938 40.3880201,11.6198438 40.3454258,11.2663125 C40.2565068,10.5441563 40.2770484,10.6470938 40.1868544,10.1882344 L40.1820378,10.1767031 C40.1861461,10.149375 40.1866183,10.1232188 40.1914822,10.0972969 L40.2504624,10.0483125 C40.9714477,9.95784375 40.9931698,9.93192188 41.7738437,9.78454688 L41.8382073,9.84914063 L41.9426623,11.8461563 C41.9438428,11.8840781 41.9455428,11.9217656 41.9477151,11.9594531 C42.3650157,11.0380781 42.3471186,11.2905469 42.8594772,10.1196094 L42.863066,10.1301563 C42.8650021,10.119375 42.8667021,10.1049375 42.8693938,10.0970625 L42.9220935,10.0480781 C43.6072845,9.95760938 43.7441338,9.9316875 44.4885412,9.7843125 L44.5472854,9.84885938 C44.5472854,9.84914063 41.5417949,14.97 41.1472079,15.8147813 L41.1472079,15.8147813 Z" id="Shape" fill="#008089"></path>
                        <path d="M28.7000119,17.3956875 L28.8581111,16.875375 L26.7909215,16.875375 L26.5856947,17.7496875 C26.8629279,17.584629 27.1687659,17.4723941 27.487493,17.41875 C27.6543283,17.384625 28.7000119,17.3956875 28.7000119,17.3956875 L28.7000119,17.3956875 Z M32.9879099,10.9864688 C33.3900051,10.7916094 33.7014341,10.3874063 33.8087697,9.91153125 C33.926258,9.38784375 33.7587144,8.98321875 33.3539747,8.828625 L32.301255,8.73839063 L32.1025449,8.71776563 L32.0914005,8.8029375 L32.0797839,8.91309375 C32.0822394,8.906625 31.5819697,11.0575313 31.5819697,11.0575313 L31.561192,11.1655313 L31.831774,11.1655313 C32.249783,11.1655313 32.655231,11.1525469 32.9879099,10.9864688 L32.9879099,10.9864688 Z M31.7761465,21.6722344 L32.9107964,21.6722344 L33.2381392,20.5903594 L32.1047171,20.5903594 L31.7761465,21.6722344 Z M33.2466392,16.8431719 L32.8706577,18.0741563 C32.8706577,18.0741563 33.2918306,17.8857188 33.5232183,17.8221563 C33.7560227,17.7614531 34.1064099,17.739375 34.1064099,17.739375 L34.3784085,16.8432188 L33.2466392,16.8432188 L33.2466392,16.8431719 Z M32.2932745,19.965375 C32.2932745,19.965375 32.726064,19.7469375 32.9557989,19.6775625 C33.1888394,19.6240781 33.5418238,19.5816094 33.5418238,19.5816094 L33.8186863,18.6859219 L32.6839892,18.6859219 L32.2932745,19.965375 L32.2932745,19.965375 Z" id="Shape" fill="#008089"></path>
                    </g>
                    <text id="银行转账" font-family="PingFangSC-Light, PingFang SC" font-size="18" font-weight="300" fill="#323A45">
                        <tspan x="57" y="22">银行转账</tspan>
                    </text>
                </g>
            </g>
        </g>
    </g>
</svg>